<?xml version="1.0" encoding="UTF-8" standalone="no"?>
<!DOCTYPE svg PUBLIC "-//W3C//DTD SVG 1.1//EN" "http://www.w3.org/Graphics/SVG/1.1/DTD/svg11.dtd">
<svg width="100%" height="100%" viewBox="0 0 32 32" version="1.1" xmlns="http://www.w3.org/2000/svg" xmlns:xlink="http://www.w3.org/1999/xlink" xml:space="preserve" xmlns:serif="http://www.serif.com/" style="fill-rule:evenodd;clip-rule:evenodd;stroke-linejoin:round;stroke-miterlimit:1.41421;">
    <path d="M12.9,14.9C12.9,14.9 15.9,14.7 15.9,11.1C15.9,7.5 13.4,5.8 10.3,5.8L4.6,5.8L4.4,5.8L0,5.8L0,25.6L10.4,25.6C10.4,25.6 16.7,25.8 16.7,19.7C16.6,19.9 16.9,14.9 12.9,14.9ZM4.6,9.4L10.3,9.4C10.3,9.4 11.7,9.4 11.7,11.5C11.7,13.6 10.9,13.9 9.9,13.9L4.6,13.9L4.6,9.4ZM10.1,22.2L4.6,22.2L4.6,16.9L10.4,16.9C10.4,16.9 12.5,16.9 12.5,19.6C12.4,21.9 10.9,22.2 10.1,22.2Z" style="fill:rgb(0,86,255);fill-rule:nonzero;"/>
    <path d="M25,10.9C17.4,10.9 17.4,18.5 17.4,18.5C17.4,18.5 16.9,26.1 25,26.1C25,26.1 31.8,26.5 31.8,20.8L28.3,20.8C28.3,20.8 28.4,22.9 25.1,22.9C25.1,22.9 21.6,23.1 21.6,19.4L31.9,19.4C31.9,19.5 33.1,10.9 25,10.9ZM28.1,16.9L21.6,16.9C21.6,16.9 22,13.8 25.1,13.8C28.2,13.8 28.1,16.9 28.1,16.9Z" style="fill:rgb(0,86,255);fill-rule:nonzero;"/>
    <rect x="20.8" y="7" width="8.2" height="2" style="fill:rgb(0,86,255);"/>
</svg>
