<?xml version="1.0" encoding="UTF-8" standalone="no"?>
<!DOCTYPE svg PUBLIC "-//W3C//DTD SVG 1.1//EN" "http://www.w3.org/Graphics/SVG/1.1/DTD/svg11.dtd">
<svg width="100%" height="100%" viewBox="0 0 32 32" version="1.1" xmlns="http://www.w3.org/2000/svg" xmlns:xlink="http://www.w3.org/1999/xlink" xml:space="preserve" xmlns:serif="http://www.serif.com/" style="fill-rule:evenodd;clip-rule:evenodd;stroke-linejoin:round;stroke-miterlimit:1.41421;">
    <path d="M16,0C7.2,0 0,7.2 0,16C0,24.8 7.2,32 16,32C24.8,32 32,24.8 32,16C32,7.2 24.8,0 16,0Z" style="fill:rgb(247,247,247);"/>
    <path d="M11.6,19.6C9.6,19.6 8,18 8,16C8,14 9.6,12.4 11.6,12.4C13.6,12.4 15.2,14 15.2,16C15.1,18 13.5,19.6 11.6,19.6Z" style="fill:rgb(0,102,224);"/>
    <path d="M20.4,19.6C18.4,19.6 16.8,18 16.8,16C16.8,14 18.4,12.4 20.4,12.4C22.4,12.4 24,14 24,16C24,18 22.4,19.6 20.4,19.6Z" style="fill:rgb(255,6,128);"/>
</svg>
