<?xml version="1.0" standalone="no"?>
<!DOCTYPE svg PUBLIC "-//W3C//DTD SVG 1.1//EN" "http://www.w3.org/Graphics/SVG/1.1/DTD/svg11.dtd">
<svg width="100%" height="100%" viewBox="0 0 300 200" version="1.1" xmlns="http://www.w3.org/2000/svg" xmlns:xlink="http://www.w3.org/1999/xlink" xml:space="preserve" style="fill-rule:evenodd;clip-rule:evenodd;stroke-linejoin:round;stroke-miterlimit:1.41421;">
    <g transform="matrix(1,0,0,1,-237.833,-300.501)">
        <path d="M375.384,366.336L375.384,396.288L398.712,396.288L398.712,366.336L375.384,366.336ZM375.384,421.2C374.808,421.776 373.752,422.4 372.216,423.072C370.68,423.744 368.712,424.08 366.312,424.08C364.008,424.08 361.8,423.672 359.688,422.856C357.576,422.04 355.68,420.888 354,419.4C352.32,417.912 351,416.088 350.04,413.928C349.08,411.768 348.6,409.296 348.6,406.512C348.6,403.056 349.536,400.488 351.408,398.808C353.28,397.128 355.176,396.288 357.096,396.288L357.816,396.288L357.816,366.336L343.56,366.336L343.56,352.8L428.376,352.8L428.376,366.336L416.424,366.336L416.424,444.816L398.712,444.816L398.712,409.968L375.384,409.968L375.384,421.2Z" style="fill:black;fill-rule:nonzero;"/>
    </g>
    <g transform="matrix(1,0,0,1,-134.666,-305.686)">
        <path d="M348.6,344.16C355.704,344.16 361.44,345.936 365.808,349.488C370.176,353.04 372.36,358.32 372.36,365.328L372.36,387.36C372.36,391.872 373.584,395.448 376.032,398.088C378.48,400.728 382.44,402.144 387.912,402.336L387.912,407.52C382.536,408.096 378.6,409.488 376.104,411.696C373.608,413.904 372.36,417.312 372.36,421.92L372.36,444.96C372.36,447.84 371.832,450.504 370.776,452.952C369.72,455.4 368.184,457.512 366.168,459.288C364.152,461.064 361.656,462.48 358.68,463.536C355.704,464.592 352.344,465.12 348.6,465.12L348.6,459.936C354.072,459.936 358.368,458.472 361.488,455.544C364.608,452.616 366.168,448.176 366.168,442.224L366.168,421.632C366.168,417.216 366.96,413.664 368.544,410.976C370.128,408.288 372.84,406.32 376.68,405.072L376.68,404.784C373.032,403.152 370.368,400.656 368.688,397.296C367.008,393.936 366.168,389.664 366.168,384.48L366.168,364.032C366.168,354.528 360.312,349.536 348.6,349.056L348.6,344.16Z" style="fill:black;fill-rule:nonzero;"/>
    </g>
    <g transform="matrix(-1,-1.22465e-16,1.22465e-16,-1,431.56,503.808)">
        <path d="M348.6,344.16C355.704,344.16 361.44,345.936 365.808,349.488C370.176,353.04 372.36,358.32 372.36,365.328L372.36,387.36C372.36,391.872 373.584,395.448 376.032,398.088C378.48,400.728 382.44,402.144 387.912,402.336L387.912,407.52C382.536,408.096 378.6,409.488 376.104,411.696C373.608,413.904 372.36,417.312 372.36,421.92L372.36,444.96C372.36,447.84 371.832,450.504 370.776,452.952C369.72,455.4 368.184,457.512 366.168,459.288C364.152,461.064 361.656,462.48 358.68,463.536C355.704,464.592 352.344,465.12 348.6,465.12L348.6,459.936C354.072,459.936 358.368,458.472 361.488,455.544C364.608,452.616 366.168,448.176 366.168,442.224L366.168,421.632C366.168,417.216 366.96,413.664 368.544,410.976C370.128,408.288 372.84,406.32 376.68,405.072L376.68,404.784C373.032,403.152 370.368,400.656 368.688,397.296C367.008,393.936 366.168,389.664 366.168,384.48L366.168,364.032C366.168,354.528 360.312,349.536 348.6,349.056L348.6,344.16Z" style="fill:black;fill-rule:nonzero;"/>
    </g>
</svg>
