<svg id="Layer_1" data-name="Layer 1" xmlns="http://www.w3.org/2000/svg" viewBox="0 0 530.12 81.78"><title>logo-inline</title><path d="M196.93,64.57H179.65l-2.59,6.63a2.53,2.53,0,0,1-.55.82,1.87,1.87,0,0,1-1.4.42h-1.84a1.11,1.11,0,0,1-1.1-1.1,1.88,1.88,0,0,1,.2-.7l12.21-31.44a4.3,4.3,0,0,1,.75-1.1,1.92,1.92,0,0,1,1.5-.55h3a1.92,1.92,0,0,1,1.49.55,4.33,4.33,0,0,1,.75,1.1l12.16,31.44a1.9,1.9,0,0,1,.2.7,1.11,1.11,0,0,1-1.1,1.1h-1.84a1.86,1.86,0,0,1-1.4-.42,2.52,2.52,0,0,1-.55-.82Zm-15.54-4.48h13.8L188.32,42.3Z" transform="translate(-17.55 -16.61)" style="fill:#231f20"/><path d="M237.44,72.45a1.59,1.59,0,0,1-1.17-.47,5.91,5.91,0,0,1-.82-1L219.25,46.59V71.1a1.36,1.36,0,0,1-1.35,1.34h-2a1.36,1.36,0,0,1-1.35-1.34V38.92a1.36,1.36,0,0,1,1.35-1.34h1.74a1.59,1.59,0,0,1,1.17.47,6,6,0,0,1,.82,1l16.19,24.36V38.92a1.36,1.36,0,0,1,1.35-1.34h2a1.36,1.36,0,0,1,1.35,1.34V71.1a1.36,1.36,0,0,1-1.35,1.34Z" transform="translate(-17.55 -16.61)" style="fill:#231f20"/><path d="M275.35,64.57H258.06l-2.59,6.63a2.53,2.53,0,0,1-.55.82,1.87,1.87,0,0,1-1.4.42h-1.84a1.11,1.11,0,0,1-1.1-1.1,1.88,1.88,0,0,1,.2-.7L263,39.22a4.3,4.3,0,0,1,.75-1.1,1.92,1.92,0,0,1,1.5-.55h3a1.92,1.92,0,0,1,1.49.55,4.33,4.33,0,0,1,.75,1.1l12.16,31.44a1.9,1.9,0,0,1,.2.7,1.11,1.11,0,0,1-1.1,1.1h-1.84a1.86,1.86,0,0,1-1.4-.42,2.52,2.52,0,0,1-.55-.82Zm-15.54-4.48h13.8L266.73,42.3Z" transform="translate(-17.55 -16.61)" style="fill:#231f20"/><path d="M315.85,72.45a1.59,1.59,0,0,1-1.17-.47,5.91,5.91,0,0,1-.82-1L297.67,46.59V71.1a1.36,1.36,0,0,1-1.35,1.34h-2a1.36,1.36,0,0,1-1.35-1.34V38.92a1.36,1.36,0,0,1,1.35-1.34H296a1.59,1.59,0,0,1,1.17.47,6,6,0,0,1,.82,1l16.19,24.36V38.92a1.36,1.36,0,0,1,1.35-1.34h2a1.36,1.36,0,0,1,1.35,1.34V71.1a1.36,1.36,0,0,1-1.35,1.34Z" transform="translate(-17.55 -16.61)" style="fill:#231f20"/><path d="M359.55,51.07q0,2.24,0,3.94t0,3.94a15.25,15.25,0,0,1-1.1,5.66,12.26,12.26,0,0,1-2.89,4.26,12.48,12.48,0,0,1-4.38,2.66,16.39,16.39,0,0,1-5.63.92H333.84a1.36,1.36,0,0,1-1.35-1.34V38.92a1.36,1.36,0,0,1,1.35-1.34h11.41a17.06,17.06,0,0,1,5.71.92,12.91,12.91,0,0,1,4.51,2.67,12.23,12.23,0,0,1,3,4.26A14.92,14.92,0,0,1,359.55,51.07Zm-4.73.25a12.75,12.75,0,0,0-.57-3.46,7.83,7.83,0,0,0-4.66-5,11.76,11.76,0,0,0-4.53-.77h-7.82V68h8.07a11.54,11.54,0,0,0,4.51-.77,7.64,7.64,0,0,0,2.92-2.07,7.87,7.87,0,0,0,1.57-3,14.13,14.13,0,0,0,.52-3.46q0-1.09,0-2t0-1.69q0-.82,0-1.69T354.81,51.32Z" transform="translate(-17.55 -16.61)" style="fill:#231f20"/><path d="M415.94,51.07q0,2.24,0,3.94t0,3.94a15.25,15.25,0,0,1-1.1,5.66A12.26,12.26,0,0,1,412,68.86a12.48,12.48,0,0,1-4.38,2.66,16.39,16.39,0,0,1-5.63.92H390.23a1.36,1.36,0,0,1-1.35-1.34V38.92a1.36,1.36,0,0,1,1.35-1.34h11.41a17.06,17.06,0,0,1,5.71.92,12.91,12.91,0,0,1,4.51,2.67,12.23,12.23,0,0,1,3,4.26A14.92,14.92,0,0,1,415.94,51.07Zm-4.73.25a12.75,12.75,0,0,0-.57-3.46,7.83,7.83,0,0,0-4.66-5,11.76,11.76,0,0,0-4.53-.77h-7.82V68h8.07a11.54,11.54,0,0,0,4.51-.77,7.64,7.64,0,0,0,2.92-2.07,7.87,7.87,0,0,0,1.57-3,14.13,14.13,0,0,0,.52-3.46q0-1.09,0-2t0-1.69q0-.82,0-1.69T411.21,51.32Z" transform="translate(-17.55 -16.61)" style="fill:#a6a8ab"/><path d="M426.85,50.57a15.66,15.66,0,0,1,1-5.26A12.36,12.36,0,0,1,430.49,41a12.67,12.67,0,0,1,4.29-2.89,16.39,16.39,0,0,1,11.66,0A12.68,12.68,0,0,1,450.72,41a12.39,12.39,0,0,1,2.67,4.28,15.71,15.71,0,0,1,1,5.26q.15,4.43,0,8.87a16.64,16.64,0,0,1-1,5.26A12.64,12.64,0,0,1,450.67,69a12.24,12.24,0,0,1-4.26,2.89,16.64,16.64,0,0,1-11.61,0A12.22,12.22,0,0,1,430.54,69a12.61,12.61,0,0,1-2.67-4.31,16.59,16.59,0,0,1-1-5.26Q426.7,55,426.85,50.57Zm22.77.25a12.88,12.88,0,0,0-.77-4.09A7.84,7.84,0,0,0,447,43.85a7.75,7.75,0,0,0-2.81-1.72,11.35,11.35,0,0,0-7.12,0,7.76,7.76,0,0,0-2.82,1.72,8.1,8.1,0,0,0-1.89,2.89,11.62,11.62,0,0,0-.75,4.09q-.1,2.24-.1,4.19t.1,4.18a11.61,11.61,0,0,0,.75,4.09,8.1,8.1,0,0,0,1.89,2.89A7.72,7.72,0,0,0,437,67.89a11.34,11.34,0,0,0,7.12,0A7.71,7.71,0,0,0,447,66.17a7.84,7.84,0,0,0,1.87-2.89,12.86,12.86,0,0,0,.77-4.09q.1-2.24.1-4.18T449.62,50.82Z" transform="translate(-17.55 -16.61)" style="fill:#a6a8ab"/><path d="M477.32,37.07a14.09,14.09,0,0,1,5.36.95,14.57,14.57,0,0,1,3.94,2.32,10.33,10.33,0,0,1,2.47,2.94,6.63,6.63,0,0,1,.9,2.81.88.88,0,0,1-.3.77,1.14,1.14,0,0,1-.8.32h-2A1.65,1.65,0,0,1,486,47a2.2,2.2,0,0,1-.67-.9,9.32,9.32,0,0,0-.82-1.27,7.44,7.44,0,0,0-1.54-1.49,9.61,9.61,0,0,0-2.37-1.25,9.19,9.19,0,0,0-3.24-.52,10.78,10.78,0,0,0-2.67.32,7.58,7.58,0,0,0-2.27,1,5.11,5.11,0,0,0-1.59,1.62,4.24,4.24,0,0,0-.6,2.27,4,4,0,0,0,.57,2.19,5.13,5.13,0,0,0,1.84,1.62,16.18,16.18,0,0,0,3.21,1.32q1.94.6,4.73,1.35a30.35,30.35,0,0,1,4.81,1.64,12.56,12.56,0,0,1,3.21,2,6.78,6.78,0,0,1,1.82,2.59,9.09,9.09,0,0,1,.57,3.31,8.76,8.76,0,0,1-1,4.11,9.65,9.65,0,0,1-2.71,3.21,13,13,0,0,1-4.21,2.09,19,19,0,0,1-5.5.75,16.17,16.17,0,0,1-5.33-.85,14.65,14.65,0,0,1-4.18-2.19,11.37,11.37,0,0,1-2.77-3,6.5,6.5,0,0,1-1.07-3.24,1.1,1.1,0,0,1,1.1-1.1h2a1.83,1.83,0,0,1,.87.2,1.75,1.75,0,0,1,.67.9,7.41,7.41,0,0,0,.92,1.52,7.24,7.24,0,0,0,1.67,1.54A10.07,10.07,0,0,0,474,68a11.22,11.22,0,0,0,3.54.5,13.41,13.41,0,0,0,3.31-.4,9.67,9.67,0,0,0,2.77-1.15,6.14,6.14,0,0,0,1.89-1.79,4.13,4.13,0,0,0,.7-2.34,3.28,3.28,0,0,0-.8-2.22,7.31,7.31,0,0,0-2.29-1.67,21.74,21.74,0,0,0-3.66-1.37q-2.17-.62-4.91-1.32a19.67,19.67,0,0,1-4.23-1.57,10.35,10.35,0,0,1-2.84-2.12,7.17,7.17,0,0,1-1.57-2.64,10,10,0,0,1-.47-3.14,9,9,0,0,1,.75-3.59,8.93,8.93,0,0,1,2.22-3.09,11.1,11.1,0,0,1,3.69-2.17A15,15,0,0,1,477.32,37.07Z" transform="translate(-17.55 -16.61)" style="fill:#a6a8ab"/><path d="M528,37.57a1.36,1.36,0,0,1,1.34,1.34V71.1A1.36,1.36,0,0,1,528,72.45h-2a1.36,1.36,0,0,1-1.34-1.34V57.05H507.11V71.1a1.36,1.36,0,0,1-1.35,1.34h-2a1.34,1.34,0,0,1-.95-.37,1.27,1.27,0,0,1-.4-1V38.92a1.36,1.36,0,0,1,1.35-1.34h2a1.36,1.36,0,0,1,1.35,1.34V52.57h17.54V38.92A1.36,1.36,0,0,1,526,37.57Z" transform="translate(-17.55 -16.61)" style="fill:#a6a8ab"/><path d="M544.28,72.45a1.36,1.36,0,0,1-1.35-1.34V38.92a1.36,1.36,0,0,1,1.35-1.34h2a1.36,1.36,0,0,1,1.35,1.34V71.1a1.36,1.36,0,0,1-1.35,1.34Z" transform="translate(-17.55 -16.61)" style="fill:#a6a8ab"/><polyline points="87.67 79.28 2.5 73.84 42.41 54.17 127.58 59.61" style="fill:none;stroke:#bbbdbf;stroke-linecap:round;stroke-linejoin:round;stroke-width:5px"/><polyline points="127.58 59.61 127.58 2.5 88.24 22.13 88.24 79.23" style="fill:none;stroke:#231f20;stroke-linecap:round;stroke-linejoin:round;stroke-width:5px"/></svg>