<svg id="Layer_1" data-name="Layer 1" xmlns="http://www.w3.org/2000/svg" viewBox="0 0 231.79 81.78"><title>logo</title><path d="M172.41,27a.7.7,0,0,1,.53.19,1.6,1.6,0,0,1,.31.57l5.44,14a.49.49,0,0,1,0,.16.61.61,0,0,1-.6.6h-1.6a.83.83,0,0,1-.62-.19,1.14,1.14,0,0,1-.24-.37l-1-2.46h-7l-1,2.46a1.13,1.13,0,0,1-.24.37.83.83,0,0,1-.62.19h-1.6a.61.61,0,0,1-.6-.6.49.49,0,0,1,0-.16l5.44-14a1.59,1.59,0,0,1,.31-.57A.7.7,0,0,1,170,27Zm1.22,9.74-2.44-6.32-2.44,6.32Z" transform="translate(-17.55 -16.48)" style="fill:#231f20"/><path d="M193,42.52a.78.78,0,0,1-.58-.2l-.29-.31-6.21-9.23v9.14a.61.61,0,0,1-.6.6h-1.8a.61.61,0,0,1-.6-.6V27.59a.61.61,0,0,1,.6-.6h1.55a.78.78,0,0,1,.58.2,4.19,4.19,0,0,1,.29.31l6.21,9.23V27.59a.61.61,0,0,1,.6-.6h1.8a.61.61,0,0,1,.6.6V41.93a.61.61,0,0,1-.6.6Z" transform="translate(-17.55 -16.48)" style="fill:#231f20"/><path d="M208.15,27a.7.7,0,0,1,.53.19,1.6,1.6,0,0,1,.31.57l5.44,14a.49.49,0,0,1,0,.16.61.61,0,0,1-.6.6h-1.6a.83.83,0,0,1-.62-.19,1.14,1.14,0,0,1-.24-.37l-1-2.46h-7l-1,2.46a1.13,1.13,0,0,1-.24.37.83.83,0,0,1-.62.19H200a.61.61,0,0,1-.6-.6.49.49,0,0,1,0-.16l5.44-14a1.59,1.59,0,0,1,.31-.57.7.7,0,0,1,.53-.19Zm1.22,9.74-2.44-6.32-2.44,6.32Z" transform="translate(-17.55 -16.48)" style="fill:#231f20"/><path d="M228.75,42.52a.78.78,0,0,1-.58-.2l-.29-.31-6.21-9.23v9.14a.61.61,0,0,1-.6.6h-1.8a.61.61,0,0,1-.6-.6V27.59a.61.61,0,0,1,.6-.6h1.55a.78.78,0,0,1,.58.2,4.19,4.19,0,0,1,.29.31l6.21,9.23V27.59a.61.61,0,0,1,.6-.6h1.8a.61.61,0,0,1,.6.6V41.93a.61.61,0,0,1-.6.6Z" transform="translate(-17.55 -16.48)" style="fill:#231f20"/><path d="M242.66,27a8.47,8.47,0,0,1,2.85.43,5.43,5.43,0,0,1,2,1.23,5.36,5.36,0,0,1,1.24,1.93,8.59,8.59,0,0,1,.52,2.53,30.68,30.68,0,0,1,0,3.28,8.6,8.6,0,0,1-.52,2.53,5.43,5.43,0,0,1-1.23,1.93,5.35,5.35,0,0,1-2,1.23,8.13,8.13,0,0,1-2.78.43h-5.59a.61.61,0,0,1-.6-.6V27.59a.61.61,0,0,1,.6-.6Zm3.64,6.12A4.48,4.48,0,0,0,246,31.8a3,3,0,0,0-.69-1.06A3.14,3.14,0,0,0,244.2,30a4.73,4.73,0,0,0-1.64-.25h-3v10h3.08a4.4,4.4,0,0,0,1.58-.25,3.12,3.12,0,0,0,1.11-.7,3,3,0,0,0,.68-1.07,4.6,4.6,0,0,0,.28-1.33A30.68,30.68,0,0,0,246.3,33.12Z" transform="translate(-17.55 -16.48)" style="fill:#231f20"/><path d="M171.19,53.62A8.47,8.47,0,0,1,174,54a5.43,5.43,0,0,1,2,1.23,5.36,5.36,0,0,1,1.24,1.93,8.6,8.6,0,0,1,.52,2.53,30.68,30.68,0,0,1,0,3.28,8.6,8.6,0,0,1-.52,2.53,5.43,5.43,0,0,1-1.23,1.93,5.35,5.35,0,0,1-2,1.23,8.13,8.13,0,0,1-2.78.43h-5.59a.61.61,0,0,1-.6-.6V54.22a.61.61,0,0,1,.6-.6Zm3.64,6.12a4.49,4.49,0,0,0-.28-1.32,3,3,0,0,0-.69-1.06,3.14,3.14,0,0,0-1.14-.71,4.73,4.73,0,0,0-1.64-.25h-3v10h3.08a4.4,4.4,0,0,0,1.58-.25,3.12,3.12,0,0,0,1.11-.7,3,3,0,0,0,.68-1.07,4.6,4.6,0,0,0,.28-1.33A30.68,30.68,0,0,0,174.83,59.74Z" transform="translate(-17.55 -16.48)" style="fill:#a6a8ab"/><path d="M184.19,59.41a7.83,7.83,0,0,1,.48-2.34,5.35,5.35,0,0,1,1.21-1.91,5.74,5.74,0,0,1,2-1.29,7.67,7.67,0,0,1,2.84-.48,7.76,7.76,0,0,1,2.82.47,5.45,5.45,0,0,1,3.22,3.19,7.54,7.54,0,0,1,.49,2.35c0,.28,0,.59,0,.93s0,.69,0,1.05,0,.71,0,1.05,0,.65,0,.93a7.83,7.83,0,0,1-.48,2.34,5.36,5.36,0,0,1-1.21,1.91,5.6,5.6,0,0,1-2,1.28,8.85,8.85,0,0,1-5.67,0,5.61,5.61,0,0,1-2-1.28,5.35,5.35,0,0,1-1.21-1.91,7.83,7.83,0,0,1-.48-2.34q0-.42,0-.93c0-.34,0-.69,0-1.05s0-.71,0-1.05S184.17,59.69,184.19,59.41Zm10,.11a3.49,3.49,0,0,0-1-2.47,3.53,3.53,0,0,0-6,2.47q0,.84,0,1.87t0,1.88a3.45,3.45,0,0,0,1,2.46,4,4,0,0,0,5,0,3.45,3.45,0,0,0,1-2.46q0-.84,0-1.87T194.24,59.52Z" transform="translate(-17.55 -16.48)" style="fill:#a6a8ab"/><path d="M209.48,53.39a7.85,7.85,0,0,1,2.62.4,6.5,6.5,0,0,1,1.89,1,4.32,4.32,0,0,1,1.14,1.32,3.39,3.39,0,0,1,.43,1.36.49.49,0,0,1-.17.43.64.64,0,0,1-.43.17H213.4a.92.92,0,0,1-.57-.14,1.49,1.49,0,0,1-.34-.39,2.89,2.89,0,0,0-1-1,3.94,3.94,0,0,0-2-.41,4.77,4.77,0,0,0-1.1.12,3.14,3.14,0,0,0-.91.35,1.89,1.89,0,0,0-.61.57,1.33,1.33,0,0,0-.22.75,1.49,1.49,0,0,0,.21.83,1.66,1.66,0,0,0,.71.55,7.15,7.15,0,0,0,1.32.43l2,.47a14.49,14.49,0,0,1,2.3.68,5.39,5.39,0,0,1,1.58.93,3.48,3.48,0,0,1,.91,1.25,4.13,4.13,0,0,1,.3,1.62,4,4,0,0,1-.44,1.85A4.27,4.27,0,0,1,214.29,68a6.42,6.42,0,0,1-2,1,9.45,9.45,0,0,1-2.68.35,9.21,9.21,0,0,1-2.37-.3,6.94,6.94,0,0,1-2-.86,4.79,4.79,0,0,1-1.41-1.37,3.59,3.59,0,0,1-.6-1.77.49.49,0,0,1,.17-.43.64.64,0,0,1,.43-.17h1.55a1,1,0,0,1,.58.13,1,1,0,0,1,.33.4,4.31,4.31,0,0,0,.38.58,2,2,0,0,0,.6.51,3.59,3.59,0,0,0,.94.37,5.78,5.78,0,0,0,1.41.14,8.11,8.11,0,0,0,1.29-.1,3.75,3.75,0,0,0,1.09-.33,2.32,2.32,0,0,0,.75-.58,1.29,1.29,0,0,0,.29-.85,1.08,1.08,0,0,0-.31-.8,2.5,2.5,0,0,0-.94-.53,13.11,13.11,0,0,0-1.56-.42q-.93-.2-2.15-.51a11.53,11.53,0,0,1-1.94-.63,4.58,4.58,0,0,1-1.38-.9,3.37,3.37,0,0,1-.81-1.25,5,5,0,0,1-.27-1.72,3.89,3.89,0,0,1,.44-1.84,4.38,4.38,0,0,1,1.22-1.44,6,6,0,0,1,1.85-.94A7.57,7.57,0,0,1,209.48,53.39Z" transform="translate(-17.55 -16.48)" style="fill:#a6a8ab"/><path d="M234.61,53.62a.61.61,0,0,1,.6.6V68.55a.61.61,0,0,1-.6.6h-1.8a.61.61,0,0,1-.6-.6V62.69h-6.7v5.86a.61.61,0,0,1-.6.6h-1.8a.6.6,0,0,1-.42-.17.56.56,0,0,1-.18-.43V54.22a.61.61,0,0,1,.6-.6h1.8a.61.61,0,0,1,.6.6v5.7h6.7v-5.7a.61.61,0,0,1,.6-.6Z" transform="translate(-17.55 -16.48)" style="fill:#a6a8ab"/><path d="M243.26,69.15a.61.61,0,0,1-.6-.6V54.22a.61.61,0,0,1,.6-.6h1.8a.61.61,0,0,1,.6.6V68.55a.61.61,0,0,1-.6.6Z" transform="translate(-17.55 -16.48)" style="fill:#a6a8ab"/><polyline points="87.67 79.28 2.5 73.84 42.41 54.17 127.58 59.61" style="fill:none;stroke:#bbbdbf;stroke-linecap:round;stroke-linejoin:round;stroke-width:5px"/><polyline points="127.58 59.61 127.58 2.5 88.24 22.13 88.24 79.23" style="fill:none;stroke:#231f20;stroke-linecap:round;stroke-linejoin:round;stroke-width:5px"/></svg>