<?xml version="1.0" encoding="UTF-8" standalone="no"?><!DOCTYPE svg PUBLIC "-//W3C//DTD SVG 1.1//EN" "http://www.w3.org/Graphics/SVG/1.1/DTD/svg11.dtd"><svg width="100%" height="100%" viewBox="0 0 948 162" version="1.1" xmlns="http://www.w3.org/2000/svg" xmlns:xlink="http://www.w3.org/1999/xlink" xml:space="preserve" style="fill-rule:evenodd;clip-rule:evenodd;stroke-linecap:round;stroke-linejoin:round;"><g id="inline.-logo"><g><path d="M118.682,153.691l-109.121,0l76.524,-37.795l109.101,0" style="fill:none;stroke:#231f20;stroke-opacity:0.15;stroke-width:9.55px;"/><path d="M195.186,116.203l0,-109.12l-75.167,37.507l0,109.101" style="fill:none;stroke:#231f20;stroke-width:9.55px;"/></g><g transform="matrix(0.797221,0,0,0.797221,-794.829,-1616.85)"><path d="M1385.19,2130.62l-43.375,0l-6.5,16.625c-0.25,0.667 -0.708,1.354 -1.375,2.062c-0.666,0.709 -1.833,1.063 -3.5,1.063l-4.625,0c-0.75,0 -1.395,-0.271 -1.937,-0.813c-0.542,-0.541 -0.813,-1.187 -0.813,-1.937c0,-0.417 0.167,-1 0.5,-1.75l30.625,-78.875c0.417,-0.917 1.042,-1.833 1.875,-2.75c0.834,-0.917 2.084,-1.375 3.75,-1.375l7.5,0c1.667,0 2.917,0.458 3.75,1.375c0.834,0.917 1.459,1.833 1.875,2.75l30.5,78.875c0.334,0.75 0.5,1.333 0.5,1.75c0,0.75 -0.27,1.396 -0.812,1.937c-0.542,0.542 -1.188,0.813 -1.938,0.813l-4.625,0c-1.666,0 -2.833,-0.354 -3.5,-1.063c-0.666,-0.708 -1.125,-1.395 -1.375,-2.062l-6.5,-16.625Zm-39,-11.25l34.625,0l-17.25,-44.625l-17.375,44.625Z" style="fill:#231f20;fill-rule:nonzero;"/><path d="M1478.07,2150.37c-1.166,0 -2.145,-0.396 -2.937,-1.188c-0.792,-0.791 -1.479,-1.645 -2.063,-2.562l-40.625,-61.125l0,61.5c0,0.917 -0.333,1.708 -1,2.375c-0.666,0.667 -1.458,1 -2.375,1l-5.125,0c-0.916,0 -1.708,-0.333 -2.375,-1c-0.666,-0.667 -1,-1.458 -1,-2.375l0,-80.75c0,-0.917 0.334,-1.708 1,-2.375c0.667,-0.667 1.459,-1 2.375,-1l4.375,0c1.167,0 2.146,0.396 2.938,1.187c0.792,0.792 1.479,1.646 2.062,2.563l40.625,61.125l0,-61.5c0,-0.917 0.334,-1.708 1,-2.375c0.667,-0.667 1.459,-1 2.375,-1l5.125,0c0.917,0 1.709,0.333 2.375,1c0.667,0.667 1,1.458 1,2.375l0,80.75c0,0.917 -0.333,1.708 -1,2.375c-0.666,0.667 -1.458,1 -2.375,1l-4.375,0Z" style="fill:#231f20;fill-rule:nonzero;"/><path d="M1564.44,2130.62l-43.375,0l-6.5,16.625c-0.25,0.667 -0.708,1.354 -1.375,2.062c-0.666,0.709 -1.833,1.063 -3.5,1.063l-4.625,0c-0.75,0 -1.395,-0.271 -1.937,-0.813c-0.542,-0.541 -0.813,-1.187 -0.813,-1.937c0,-0.417 0.167,-1 0.5,-1.75l30.625,-78.875c0.417,-0.917 1.042,-1.833 1.875,-2.75c0.834,-0.917 2.084,-1.375 3.75,-1.375l7.5,0c1.667,0 2.917,0.458 3.75,1.375c0.834,0.917 1.459,1.833 1.875,2.75l30.5,78.875c0.334,0.75 0.5,1.333 0.5,1.75c0,0.75 -0.27,1.396 -0.812,1.937c-0.542,0.542 -1.188,0.813 -1.938,0.813l-4.625,0c-1.666,0 -2.833,-0.354 -3.5,-1.063c-0.666,-0.708 -1.125,-1.395 -1.375,-2.062l-6.5,-16.625Zm-39,-11.25l34.625,0l-17.25,-44.625l-17.375,44.625Z" style="fill:#231f20;fill-rule:nonzero;"/><path d="M1657.32,2150.37c-1.166,0 -2.145,-0.396 -2.937,-1.188c-0.792,-0.791 -1.479,-1.645 -2.063,-2.562l-40.625,-61.125l0,61.5c0,0.917 -0.333,1.708 -1,2.375c-0.666,0.667 -1.458,1 -2.375,1l-5.125,0c-0.916,0 -1.708,-0.333 -2.375,-1c-0.666,-0.667 -1,-1.458 -1,-2.375l0,-80.75c0,-0.917 0.334,-1.708 1,-2.375c0.667,-0.667 1.459,-1 2.375,-1l4.375,0c1.167,0 2.146,0.396 2.938,1.187c0.792,0.792 1.479,1.646 2.062,2.563l40.625,61.125l0,-61.5c0,-0.917 0.334,-1.708 1,-2.375c0.667,-0.667 1.459,-1 2.375,-1l5.125,0c0.917,0 1.709,0.333 2.375,1c0.667,0.667 1,1.458 1,2.375l0,80.75c0,0.917 -0.333,1.708 -1,2.375c-0.666,0.667 -1.458,1 -2.375,1l-4.375,0Z" style="fill:#231f20;fill-rule:nonzero;"/><path d="M1758.19,2096.74c0.084,3.75 0.125,7.042 0.125,9.875c0,2.833 -0.041,6.125 -0.125,9.875c-0.083,5.25 -1,9.979 -2.75,14.187c-1.75,4.209 -4.166,7.771 -7.25,10.688c-3.083,2.917 -6.75,5.146 -11,6.687c-4.25,1.542 -8.958,2.313 -14.125,2.313l-29.375,0c-0.916,0 -1.708,-0.333 -2.375,-1c-0.666,-0.667 -1,-1.458 -1,-2.375l0,-80.75c0,-0.917 0.334,-1.708 1,-2.375c0.667,-0.667 1.459,-1 2.375,-1l28.625,0c5.167,0 9.938,0.771 14.313,2.312c4.375,1.542 8.146,3.771 11.312,6.688c3.167,2.917 5.646,6.479 7.438,10.687c1.792,4.209 2.729,8.938 2.812,14.188Zm-11.875,0.625c-0.083,-3 -0.562,-5.896 -1.437,-8.688c-0.875,-2.791 -2.271,-5.27 -4.188,-7.437c-1.916,-2.167 -4.416,-3.896 -7.5,-5.188c-3.083,-1.291 -6.875,-1.937 -11.375,-1.937l-19.625,0l0,65l20.25,0c4.5,0 8.271,-0.646 11.313,-1.938c3.042,-1.291 5.479,-3.02 7.312,-5.187c1.834,-2.167 3.146,-4.646 3.938,-7.438c0.792,-2.791 1.229,-5.687 1.312,-8.687c0,-1.833 0.021,-3.479 0.063,-4.938c0.042,-1.458 0.062,-2.875 0.062,-4.25c0,-1.375 -0.02,-2.791 -0.062,-4.25c-0.042,-1.458 -0.063,-3.145 -0.063,-5.062Z" style="fill:#231f20;fill-rule:nonzero;"/><path d="M1882.19,2096.74c0.084,3.75 0.125,7.042 0.125,9.875c0,2.833 -0.041,6.125 -0.125,9.875c-0.083,5.25 -1,9.979 -2.75,14.187c-1.75,4.209 -4.166,7.771 -7.25,10.688c-3.083,2.917 -6.75,5.146 -11,6.687c-4.25,1.542 -8.958,2.313 -14.125,2.313l-29.375,0c-0.916,0 -1.708,-0.333 -2.375,-1c-0.666,-0.667 -1,-1.458 -1,-2.375l0,-80.75c0,-0.917 0.334,-1.708 1,-2.375c0.667,-0.667 1.459,-1 2.375,-1l28.625,0c5.167,0 9.938,0.771 14.313,2.312c4.375,1.542 8.146,3.771 11.312,6.688c3.167,2.917 5.646,6.479 7.438,10.687c1.792,4.209 2.729,8.938 2.812,14.188Zm-11.875,0.625c-0.083,-3 -0.562,-5.896 -1.437,-8.688c-0.875,-2.791 -2.271,-5.27 -4.188,-7.437c-1.916,-2.167 -4.416,-3.896 -7.5,-5.188c-3.083,-1.291 -6.875,-1.937 -11.375,-1.937l-19.625,0l0,65l20.25,0c4.5,0 8.271,-0.646 11.313,-1.938c3.042,-1.291 5.479,-3.02 7.312,-5.187c1.834,-2.167 3.146,-4.646 3.938,-7.438c0.792,-2.791 1.229,-5.687 1.312,-8.687c0,-1.833 0.021,-3.479 0.063,-4.938c0.042,-1.458 0.062,-2.875 0.062,-4.25c0,-1.375 -0.02,-2.791 -0.062,-4.25c-0.042,-1.458 -0.063,-3.145 -0.063,-5.062Z" style="fill:#231f20;fill-opacity:0.25098;fill-rule:nonzero;"/><path d="M1900.82,2095.49c0.084,-4.667 0.896,-9.063 2.438,-13.188c1.542,-4.125 3.771,-7.708 6.687,-10.75c2.917,-3.041 6.5,-5.458 10.75,-7.25c4.25,-1.791 9.125,-2.687 14.625,-2.687c5.5,0 10.375,0.896 14.625,2.687c4.25,1.792 7.834,4.209 10.75,7.25c2.917,3.042 5.146,6.625 6.688,10.75c1.542,4.125 2.354,8.521 2.437,13.188c0.25,7.417 0.25,14.833 0,22.25c-0.166,4.667 -1.02,9.062 -2.562,13.187c-1.542,4.125 -3.771,7.73 -6.688,10.813c-2.916,3.083 -6.479,5.5 -10.687,7.25c-4.208,1.75 -9.063,2.625 -14.563,2.625c-5.5,0 -10.354,-0.875 -14.562,-2.625c-4.208,-1.75 -7.771,-4.167 -10.688,-7.25c-2.916,-3.083 -5.145,-6.688 -6.687,-10.813c-1.542,-4.125 -2.396,-8.52 -2.563,-13.187c-0.25,-7.417 -0.25,-14.833 0,-22.25Zm57.125,0.625c-0.166,-3.917 -0.812,-7.333 -1.937,-10.25c-1.125,-2.917 -2.688,-5.333 -4.688,-7.25c-2,-1.917 -4.354,-3.354 -7.062,-4.313c-2.708,-0.958 -5.688,-1.437 -8.938,-1.437c-3.25,0 -6.229,0.479 -8.937,1.437c-2.708,0.959 -5.063,2.396 -7.063,4.313c-2,1.917 -3.583,4.333 -4.75,7.25c-1.166,2.917 -1.791,6.333 -1.875,10.25c-0.166,3.75 -0.25,7.25 -0.25,10.5c0,3.25 0.084,6.75 0.25,10.5c0.084,3.917 0.709,7.333 1.875,10.25c1.167,2.917 2.75,5.333 4.75,7.25c2,1.917 4.355,3.354 7.063,4.312c2.708,0.959 5.687,1.438 8.937,1.438c3.25,0 6.23,-0.479 8.938,-1.438c2.708,-0.958 5.062,-2.395 7.062,-4.312c2,-1.917 3.563,-4.333 4.688,-7.25c1.125,-2.917 1.771,-6.333 1.937,-10.25c0.167,-3.75 0.25,-7.25 0.25,-10.5c0,-3.25 -0.083,-6.75 -0.25,-10.5Z" style="fill:#231f20;fill-opacity:0.25098;fill-rule:nonzero;"/><path d="M2018.69,2061.62c5.084,0 9.563,0.792 13.438,2.375c3.875,1.583 7.167,3.521 9.875,5.812c2.708,2.292 4.771,4.75 6.187,7.375c1.417,2.625 2.167,4.98 2.25,7.063c0.084,0.75 -0.166,1.396 -0.75,1.937c-0.583,0.542 -1.25,0.813 -2,0.813l-5.125,0c-0.916,0 -1.645,-0.167 -2.187,-0.5c-0.542,-0.333 -1.104,-1.083 -1.688,-2.25c-0.416,-0.833 -1.104,-1.896 -2.062,-3.188c-0.958,-1.291 -2.25,-2.541 -3.875,-3.75c-1.625,-1.208 -3.604,-2.25 -5.938,-3.125c-2.333,-0.875 -5.041,-1.312 -8.125,-1.312c-2.333,0 -4.562,0.271 -6.687,0.812c-2.125,0.542 -4.021,1.355 -5.688,2.438c-1.666,1.083 -3,2.437 -4,4.062c-1,1.625 -1.5,3.521 -1.5,5.688c0,2.167 0.48,4 1.438,5.5c0.958,1.5 2.5,2.854 4.625,4.062c2.125,1.209 4.812,2.313 8.062,3.313c3.25,1 7.209,2.125 11.875,3.375c4.75,1.25 8.771,2.625 12.063,4.125c3.292,1.5 5.979,3.187 8.062,5.062c2.084,1.875 3.605,4.042 4.563,6.5c0.958,2.459 1.437,5.23 1.437,8.313c0,3.75 -0.812,7.187 -2.437,10.312c-1.625,3.125 -3.896,5.813 -6.813,8.063c-2.916,2.25 -6.437,4 -10.562,5.25c-4.125,1.25 -8.729,1.875 -13.813,1.875c-4.833,0 -9.291,-0.708 -13.375,-2.125c-4.083,-1.417 -7.583,-3.25 -10.5,-5.5c-2.916,-2.25 -5.229,-4.75 -6.937,-7.5c-1.708,-2.75 -2.604,-5.458 -2.688,-8.125c0,-0.75 0.271,-1.396 0.813,-1.938c0.542,-0.541 1.187,-0.812 1.937,-0.812l5.125,0c0.834,0 1.563,0.167 2.188,0.5c0.625,0.333 1.187,1.083 1.687,2.25c0.5,1.167 1.271,2.437 2.313,3.812c1.042,1.375 2.437,2.667 4.187,3.875c1.75,1.209 3.875,2.23 6.375,3.063c2.5,0.833 5.459,1.25 8.875,1.25c2.917,0 5.688,-0.333 8.313,-1c2.625,-0.667 4.937,-1.625 6.937,-2.875c2,-1.25 3.584,-2.75 4.75,-4.5c1.167,-1.75 1.75,-3.708 1.75,-5.875c0,-2.167 -0.666,-4.021 -2,-5.563c-1.333,-1.541 -3.25,-2.937 -5.75,-4.187c-2.5,-1.25 -5.562,-2.396 -9.187,-3.438c-3.625,-1.041 -7.729,-2.145 -12.313,-3.312c-4.166,-1.083 -7.708,-2.396 -10.625,-3.938c-2.916,-1.541 -5.291,-3.312 -7.125,-5.312c-1.833,-2 -3.145,-4.208 -3.937,-6.625c-0.792,-2.417 -1.188,-5.042 -1.188,-7.875c0,-3.083 0.625,-6.083 1.875,-9c1.25,-2.917 3.105,-5.5 5.563,-7.75c2.458,-2.25 5.542,-4.063 9.25,-5.438c3.708,-1.375 8.062,-2.062 13.062,-2.062Z" style="fill:#231f20;fill-opacity:0.25098;fill-rule:nonzero;"/><path d="M2137.19,2062.87c0.917,0 1.709,0.333 2.375,1c0.667,0.667 1,1.458 1,2.375l0,80.75c0,0.917 -0.333,1.708 -1,2.375c-0.666,0.667 -1.458,1 -2.375,1l-5.125,0c-0.916,0 -1.708,-0.333 -2.375,-1c-0.666,-0.667 -1,-1.458 -1,-2.375l0,-35.25l-44,0l0,35.25c0,0.917 -0.333,1.708 -1,2.375c-0.666,0.667 -1.458,1 -2.375,1l-5.125,0c-0.916,0 -1.708,-0.313 -2.375,-0.938c-0.666,-0.625 -1,-1.437 -1,-2.437l0,-80.75c0,-0.917 0.334,-1.708 1,-2.375c0.667,-0.667 1.459,-1 2.375,-1l5.125,0c0.917,0 1.709,0.333 2.375,1c0.667,0.667 1,1.458 1,2.375l0,34.25l44,0l0,-34.25c0,-0.917 0.334,-1.708 1,-2.375c0.667,-0.667 1.459,-1 2.375,-1l5.125,0Z" style="fill:#231f20;fill-opacity:0.25098;fill-rule:nonzero;"/><path d="M2169.19,2150.37c-0.916,0 -1.708,-0.333 -2.375,-1c-0.666,-0.667 -1,-1.458 -1,-2.375l0,-80.75c0,-0.917 0.334,-1.708 1,-2.375c0.667,-0.667 1.459,-1 2.375,-1l5.125,0c0.917,0 1.709,0.333 2.375,1c0.667,0.667 1,1.458 1,2.375l0,80.75c0,0.917 -0.333,1.708 -1,2.375c-0.666,0.667 -1.458,1 -2.375,1l-5.125,0Z" style="fill:#231f20;fill-opacity:0.25098;fill-rule:nonzero;"/></g></g></svg>